<svg width="18" height="20" viewBox="0 0 18 20" fill="none" xmlns="http://www.w3.org/2000/svg">
<path opacity="0.4" d="M13.191 0H4.81C1.77 0 0 1.78 0 4.83V15.16C0 18.26 1.77 20 4.81 20H13.191C16.28 20 18 18.26 18 15.16V4.83C18 1.78 16.28 0 13.191 0Z" fill="#9796A1"/>
<path fill-rule="evenodd" clip-rule="evenodd" d="M5.07968 4.64984V4.65984C4.64868 4.65984 4.29968 5.00984 4.29968 5.43984C4.29968 5.86984 4.64868 6.21984 5.07968 6.21984H8.06868C8.49967 6.21984 8.84968 5.86984 8.84968 5.42884C8.84968 4.99984 8.49967 4.64984 8.06868 4.64984H5.07968ZM12.9197 10.7399H5.07968C4.64868 10.7399 4.29968 10.3899 4.29968 9.95989C4.29968 9.52989 4.64868 9.17889 5.07968 9.17889H12.9197C13.3497 9.17889 13.6997 9.52989 13.6997 9.95989C13.6997 10.3899 13.3497 10.7399 12.9197 10.7399ZM12.9198 15.3098H5.07983C4.77983 15.3498 4.48983 15.1998 4.32983 14.9498C4.16983 14.6898 4.16983 14.3598 4.32983 14.1098C4.48983 13.8498 4.77983 13.7098 5.07983 13.7398H12.9198C13.3188 13.7798 13.6198 14.1198 13.6198 14.5298C13.6198 14.9288 13.3188 15.2698 12.9198 15.3098Z" fill="#9796A1"/>
</svg>
