<svg width="21" height="24" viewBox="0 0 21 24" fill="none" xmlns="http://www.w3.org/2000/svg">
<path d="M19.6488 11.966C19.1354 11.364 18.721 10.6841 18.4212 9.95192C18.1957 9.38196 18.0819 8.77403 18.086 8.1611V7.93992C18.086 5.8341 17.2495 3.81456 15.7605 2.32551C14.2715 0.836474 12.2518 0 10.146 0C8.03963 0 6.01965 0.83671 4.53023 2.32613C3.04081 3.81554 2.20398 5.83565 2.20398 7.942V8.16513C2.20813 8.77464 2.09502 9.37916 1.87081 9.94594C1.57084 10.68 1.15575 11.3616 0.641182 11.965C0.33624 12.4742 0.134772 13.0384 0.0482311 13.6255C-0.0383099 14.2127 -0.00817551 14.8111 0.136899 15.3866C0.281973 15.962 0.539092 16.5032 0.893629 16.9792C1.24817 17.4551 1.69314 17.8564 2.20301 18.1602C2.20873 18.1648 2.21519 18.1685 2.22206 18.1712L2.27604 18.2022C2.40793 18.2713 2.54427 18.3314 2.68421 18.3822C2.73823 18.4032 2.79929 18.4253 2.86533 18.4483C3.05538 18.5189 3.24955 18.578 3.44668 18.6254C3.48469 18.6334 3.52163 18.6444 3.55965 18.6494H3.56771L3.79487 18.7034C3.95395 18.7394 4.12599 18.7744 4.31308 18.8104L4.60522 18.8624C4.80532 18.8964 5.02644 18.9306 5.26156 18.9626C5.49668 18.9946 5.74781 19.0255 6.01694 19.0536C7.38837 19.19 8.76583 19.2568 10.144 19.2536C10.9444 19.2536 11.6668 19.2417 12.3221 19.2137C13.4677 19.1637 14.4002 19.0736 15.1556 18.9655C15.4788 18.9195 15.7709 18.8655 16.031 18.8185C16.7508 18.7286 17.4474 18.505 18.085 18.1591C18.5949 17.8556 19.0399 17.4546 19.3945 16.9789C19.7492 16.5032 20.0065 15.9622 20.1518 15.3869C20.297 14.8116 20.3273 14.2134 20.241 13.6264C20.1547 13.0394 19.9535 12.4751 19.6488 11.966Z" fill="#D3D1D8"/>
<path d="M13.2486 20.9375C12.2591 20.5656 11.2022 20.4066 10.1471 20.4712C9.09193 20.4067 8.03506 20.5656 7.04553 20.9375C6.88904 21.0299 6.76461 21.1681 6.68927 21.3334C6.61393 21.4988 6.59129 21.6833 6.6243 21.862C6.7901 22.3705 7.09234 22.8235 7.49815 23.1718C7.90397 23.5201 8.39769 23.7502 8.92539 23.837C9.72734 24.0543 10.5727 24.0543 11.3746 23.837C11.9024 23.7505 12.3962 23.5204 12.8021 23.1721C13.208 22.8237 13.5102 22.3706 13.6758 21.862C13.7084 21.6827 13.6849 21.4977 13.6084 21.3322C13.532 21.1668 13.4063 21.0289 13.2486 20.9375Z" fill="#D3D1D8"/>
</svg>
