<svg width="20" height="24" viewBox="0 0 20 24" fill="none" xmlns="http://www.w3.org/2000/svg">
<path d="M18.5363 4.76494C17.6427 3.30454 16.3879 2.09884 14.893 1.26428C13.3981 0.429719 11.7134 -0.00568332 10.0013 6.4033e-05C8.28912 -0.00607416 6.6042 0.429189 5.10921 1.26379C3.61422 2.09839 2.35961 3.30427 1.46632 4.76494C0.733417 6.00433 0.262461 7.38082 0.0825427 8.8094C-0.0973759 10.238 0.017554 11.6883 0.420259 13.0707C2.15391 19.0329 7.97575 22.903 9.5842 23.8744C9.70959 23.9495 9.85303 23.9891 9.99919 23.9891C10.1454 23.9891 10.2888 23.9495 10.4142 23.8744C12.0236 22.9 17.8446 19.0279 19.5782 13.0707C19.9817 11.6885 20.0973 10.2384 19.9181 8.80977C19.7388 7.38117 19.2686 6.00457 18.5363 4.76494ZM10.0013 13.6795C9.09544 13.6793 8.22678 13.3192 7.58625 12.6787C6.94572 12.0382 6.58569 11.1695 6.58543 10.2637C6.58569 9.35783 6.94572 8.48916 7.58625 7.84863C8.22678 7.2081 9.09544 6.8482 10.0013 6.84793C10.9073 6.84793 11.7762 7.20771 12.4169 7.84826C13.0577 8.48882 13.4177 9.35765 13.418 10.2637C13.4177 11.1697 13.0577 12.0385 12.4169 12.6791C11.7762 13.3196 10.9073 13.6795 10.0013 13.6795Z" fill="#D3D1D8"/>
</svg>
