<svg width="19" height="17" viewBox="0 0 19 17" fill="none" xmlns="http://www.w3.org/2000/svg">
<path d="M13.6315 1.35431e-08C12.7499 0.000153786 11.8843 0.23494 11.1235 0.68025C10.3627 1.12556 9.73409 1.76535 9.30229 2.53391C8.87038 1.76516 8.2416 1.12526 7.48054 0.679939C6.71949 0.234618 5.8536 -6.50935e-05 4.97183 1.35431e-08C3.62137 0.0729354 2.35101 0.6637 1.42502 1.6494C0.499033 2.6351 -0.011298 3.93985 0.000189819 5.29223C0.000189819 12.1887 9.30229 17 9.30229 17C9.30229 17 18.6044 12.1911 18.6044 5.29223C18.6159 3.93965 18.1054 2.63473 17.1791 1.64899C16.2529 0.66326 14.9822 0.0726291 13.6315 1.35431e-08V1.35431e-08Z" fill="white"/>
</svg>
