<svg width="11" height="13" viewBox="0 0 11 13" fill="none" xmlns="http://www.w3.org/2000/svg">
<path d="M4.87628 12.7587C4.54621 12.7588 4.21696 12.7256 3.89354 12.6597C3.26986 12.532 2.67745 12.2826 2.1501 11.926C1.36609 11.3967 0.752406 10.6515 0.383399 9.78047C0.25865 9.48553 0.163412 9.17896 0.099077 8.86524C-0.0330257 8.21674 -0.0330257 7.54825 0.099077 6.89975C0.226826 6.27607 0.476129 5.68366 0.832762 5.1563C1.36203 4.3723 2.10731 3.75862 2.9783 3.38961C3.27325 3.26486 3.57982 3.16962 3.89354 3.10529C4.54204 2.97318 5.21053 2.97318 5.85903 3.10529C6.48271 3.23304 7.07512 3.48234 7.60247 3.83897C8.38648 4.36824 9.00016 5.11352 9.36917 5.98451C9.49392 6.27946 9.58916 6.58603 9.65349 6.89975C9.78339 7.53792 9.78543 8.19552 9.65949 8.83448C9.55148 9.38408 9.34838 9.91061 9.05934 10.3904C8.62646 11.1132 8.01349 11.7114 7.28031 12.1265C6.54713 12.5416 5.71882 12.7594 4.87628 12.7587ZM6.55596 5.59817C6.47694 5.5981 6.39869 5.61365 6.3257 5.6439C6.25271 5.67415 6.18641 5.71852 6.1306 5.77446L4.42617 7.47664C4.31326 7.58975 4.24991 7.74308 4.25005 7.9029C4.25019 8.06272 4.31381 8.21595 4.42692 8.32886C4.54003 8.44177 4.69336 8.50512 4.85318 8.50498C5.013 8.50484 5.16622 8.44122 5.27914 8.32811L6.1306 7.47664L6.98207 6.62593C7.06718 6.54211 7.12535 6.4348 7.14912 6.31774C7.17289 6.20067 7.16119 6.07917 7.11551 5.9688C7.06983 5.85842 6.99225 5.76419 6.8927 5.69816C6.79315 5.63214 6.67616 5.59732 6.55671 5.59817H6.55596Z" fill="#A5A6F6"/>
<path d="M2.48943 0.637669C2.48943 0.468551 2.55661 0.306359 2.67619 0.186774C2.79578 0.0671897 2.95797 7.67537e-06 3.12709 7.67537e-06L6.95305 7.67537e-06C7.12217 7.67537e-06 7.28436 0.0671897 7.40395 0.186774C7.52353 0.306359 7.59071 0.468551 7.59071 0.637669C7.59071 0.806787 7.52353 0.968979 7.40395 1.08856C7.28436 1.20815 7.12217 1.27533 6.95305 1.27533L3.12709 1.27533C2.95797 1.27533 2.79578 1.20815 2.67619 1.08856C2.55661 0.968979 2.48943 0.806787 2.48943 0.637669V0.637669Z" fill="#A5A6F6"/>
<path d="M9.0343 1.82854C9.15783 1.70502 9.32536 1.63562 9.50005 1.63562C9.67474 1.63562 9.84227 1.70502 9.9658 1.82854L10.8071 2.66986C10.9306 2.79338 11 2.96092 11 3.13561C11 3.31029 10.9306 3.47783 10.8071 3.60135C10.6836 3.72488 10.5161 3.79427 10.3414 3.79427C10.1667 3.79427 9.99914 3.72488 9.87562 3.60135L9.0343 2.76004C8.91078 2.63651 8.84138 2.46898 8.84138 2.29429C8.84138 2.1196 8.91078 1.95207 9.0343 1.82854Z" fill="#A5A6F6"/>
</svg>
