<svg width="14" height="12" viewBox="0 0 14 12" fill="none" xmlns="http://www.w3.org/2000/svg">
<path d="M5.07475 6.09182C5.08098 5.40786 5.26471 4.73726 5.60797 4.14565C5.95123 3.55403 6.44223 3.06172 7.03292 2.71688C7.15049 2.62398 7.29012 2.56311 7.4382 2.54023C7.58628 2.51734 7.73776 2.5332 7.87789 2.58626C8.01802 2.63933 8.14199 2.7278 8.23777 2.84304C8.33354 2.95827 8.39785 3.09634 8.42439 3.24381C8.56896 3.66812 8.74388 4.08233 8.88411 4.50808C8.92149 4.63588 8.99199 4.75152 9.08847 4.8433C9.18494 4.93508 9.30397 4.99973 9.43348 5.03069C9.86284 5.1543 10.2922 5.27646 10.7194 5.40513C10.7755 5.41574 10.829 5.43744 10.8766 5.46897C10.9243 5.5005 10.9652 5.54122 10.9969 5.58875C11.0286 5.63628 11.0505 5.68965 11.0613 5.74575C11.0721 5.80185 11.0716 5.85954 11.0599 5.91545C11.0533 5.97578 11.034 6.03402 11.003 6.08621C10.972 6.13841 10.9303 6.18335 10.8804 6.21802C10.8306 6.25269 10.7739 6.27627 10.7142 6.28718C10.6545 6.29808 10.5932 6.29605 10.5344 6.28122C10.1043 6.22122 9.67562 6.15399 9.24915 6.07159C8.92936 6.02366 8.62612 5.89831 8.36584 5.70644C8.10556 5.51457 7.89615 5.26199 7.75577 4.97069C7.68348 4.82612 7.59528 4.68807 7.50058 4.52326C7.16816 4.84718 6.94485 5.26656 6.86161 5.72318C6.80884 5.93281 6.86158 6.03254 7.06976 6.1041C7.68852 6.3159 8.30293 6.54215 8.91446 6.77491C9.03626 6.80418 9.14875 6.86367 9.24151 6.94786C9.33428 7.03205 9.40435 7.13824 9.44525 7.25664C9.48616 7.37505 9.49657 7.50185 9.47556 7.62535C9.45456 7.74884 9.40279 7.86506 9.32503 7.96327C9.01855 8.46927 8.6904 8.96223 8.36584 9.45738C8.13598 9.80796 8.13164 9.80506 8.36584 10.1607C8.3803 10.1824 8.40559 10.2048 8.40559 10.2265C8.40559 10.3429 8.441 10.4961 8.38173 10.5655C8.33812 10.6085 8.28515 10.6408 8.22696 10.6599C8.16876 10.6789 8.10693 10.6842 8.04633 10.6754C7.73443 10.587 7.42914 10.4769 7.13268 10.3458C7.07501 10.3269 7.02232 10.2954 6.97848 10.2535C6.93464 10.2116 6.90076 10.1603 6.87939 10.1036C6.85802 10.0468 6.84969 9.98595 6.85499 9.92553C6.8603 9.8651 6.87912 9.80665 6.91005 9.75448C7.13703 9.20849 7.36468 8.66251 7.5931 8.11652C7.61189 8.07098 7.62564 8.02399 7.64516 7.97194C7.16158 7.82737 6.68886 7.68714 6.22118 7.53823C6.01535 7.4811 5.81707 7.39957 5.6306 7.29536C5.43391 7.16756 5.27736 6.98676 5.179 6.77381C5.08065 6.56086 5.04451 6.32443 5.07475 6.09182Z" fill="#A5A6F6"/>
<path d="M3.9634 6.74662C3.54198 6.75168 3.11984 6.74229 2.69842 6.75096C2.52377 6.75474 2.34991 6.77581 2.17941 6.81386C1.821 6.88957 1.49056 7.06302 1.22468 7.315C0.958792 7.56698 0.767858 7.88765 0.673014 8.24148L0.521245 8.69614L0.430184 8.68529C0.296174 8.37314 0.246379 8.0313 0.285827 7.6939C0.325275 7.35649 0.452523 7.03534 0.654925 6.76252C0.248687 6.67506 0.0470484 6.48352 0.03982 6.1539C0.0205441 5.30143 0.00756542 4.44871 0.000818875 3.59576C-0.00345028 3.51557 0.00900519 3.43537 0.0374375 3.36027C0.0658699 3.28517 0.109607 3.21681 0.165912 3.15956C0.222216 3.1023 0.289833 3.05739 0.364447 3.02771C0.43906 2.99802 0.518998 2.98419 0.599247 2.98712C1.48786 2.97892 2.37656 2.97892 3.26517 2.98712C3.43978 2.98704 3.60848 3.05018 3.74016 3.16485C3.87184 3.27952 3.95757 3.43797 3.98149 3.61094C4.14341 4.45329 4.30313 5.29661 4.46071 6.14089C4.48209 6.215 4.4851 6.2932 4.46953 6.36874C4.45396 6.44428 4.42027 6.5149 4.37132 6.57451C4.32238 6.63413 4.25965 6.68094 4.18858 6.71093C4.11752 6.74091 4.04025 6.75316 3.9634 6.74662Z" fill="#A5A6F6"/>
<path d="M10.9043 7.54949C11.038 7.48227 11.0923 7.41793 11.0352 7.2683C10.9945 7.15056 10.9635 7.02968 10.9427 6.90688C10.9036 6.7146 10.9687 6.58304 11.1132 6.54546C11.2715 6.50281 11.3973 6.58956 11.4501 6.78328C11.4978 6.95748 11.5404 7.13386 11.5896 7.3283C11.7653 7.31851 11.9415 7.31851 12.1173 7.3283C12.5523 7.38206 12.9604 7.56769 13.2868 7.86024C13.6132 8.1528 13.8423 8.53827 13.9432 8.96483C14.0432 9.3923 14.0106 9.84011 13.8497 10.2486C13.6888 10.657 13.4072 11.0068 13.0425 11.2512C12.6777 11.4924 12.2478 11.6162 11.8105 11.606C11.3733 11.5958 10.9496 11.452 10.5964 11.1941C10.3018 10.976 10.0679 10.6862 9.91685 10.3522C9.76583 10.0182 9.70276 9.65112 9.73362 9.28588C9.76448 8.92063 9.88824 8.56935 10.0931 8.26543C10.2981 7.96151 10.5773 7.71505 10.9043 7.54949ZM10.6564 9.91318C10.7686 10.2136 10.9887 10.4615 11.2737 10.6085C11.5588 10.7555 11.8884 10.7911 12.1982 10.7083C12.5151 10.6203 12.7866 10.4151 12.9578 10.1343C13.1289 9.85349 13.1869 9.51808 13.1198 9.19612C13.0589 8.8967 12.8912 8.62966 12.6479 8.44469C12.4047 8.25971 12.1026 8.16943 11.7978 8.19065C11.8549 8.41184 11.9062 8.62941 11.9712 8.8412C11.9821 8.87807 12.0435 8.90338 12.0898 8.92651C12.1649 8.95881 12.2323 9.00665 12.2875 9.06689C12.3427 9.12714 12.3845 9.1984 12.4102 9.276C12.4359 9.35359 12.4449 9.43574 12.4365 9.51704C12.4281 9.59834 12.4025 9.67693 12.3616 9.74765C12.3227 9.81522 12.2705 9.87425 12.2083 9.92115C12.146 9.96805 12.0748 10.0019 11.9991 10.0206C11.9234 10.0393 11.8447 10.0425 11.7678 10.03C11.6908 10.0175 11.6172 9.98956 11.5513 9.94788C11.4833 9.903 11.4253 9.84452 11.3811 9.77613C11.3368 9.70774 11.3072 9.63093 11.2941 9.55053C11.281 9.47012 11.2847 9.38786 11.3049 9.30895C11.3252 9.23004 11.3616 9.15619 11.4118 9.09204C11.449 9.02999 11.4631 8.95675 11.4515 8.8853C11.4161 8.69519 11.3612 8.50943 11.3069 8.30703C11.0176 8.44524 10.7904 8.68668 10.67 8.98388C10.5497 9.28109 10.5448 9.61257 10.6564 9.91318Z" fill="#A5A6F6"/>
<path d="M3.17232 7.32234C3.45407 7.31868 3.73369 7.37126 3.99487 7.477C4.25605 7.58274 4.49351 7.73952 4.69336 7.93816C4.89321 8.13679 5.05149 8.37329 5.15882 8.63382C5.26614 8.89436 5.32039 9.17368 5.31844 9.45545C5.32092 9.73707 5.26766 10.0164 5.16173 10.2774C5.0558 10.5383 4.89928 10.7757 4.70122 10.9759C4.50315 11.1762 4.26746 11.3352 4.00767 11.444C3.74787 11.5527 3.46913 11.609 3.1875 11.6095C2.9058 11.6099 2.62686 11.5546 2.36662 11.4468C2.10639 11.3389 1.86998 11.1807 1.67113 10.9811C1.47228 10.7816 1.31485 10.5447 1.20788 10.2841C1.10092 10.0235 1.04657 9.74438 1.04791 9.46268C1.04656 8.89737 1.26944 8.35458 1.66769 7.95335C2.06594 7.55213 2.60701 7.32521 3.17232 7.32234ZM3.1882 10.7544C3.5294 10.7506 3.8555 10.613 4.09617 10.3711C4.33684 10.1292 4.47282 9.80244 4.47489 9.46123C4.47243 9.1194 4.3355 8.79228 4.09379 8.55057C3.85207 8.30886 3.525 8.17198 3.18317 8.16952C3.01415 8.17017 2.8469 8.20431 2.69116 8.27C2.53542 8.33568 2.39427 8.43161 2.27582 8.5522C2.15738 8.67279 2.06401 8.81567 2.00114 8.97257C1.93827 9.12947 1.90716 9.29727 1.90955 9.46628C1.90724 9.6351 1.93857 9.8027 2.00176 9.95926C2.06495 10.1158 2.15874 10.2582 2.27759 10.3782C2.39644 10.4981 2.53791 10.5931 2.6939 10.6577C2.84988 10.7223 3.01725 10.7552 3.18609 10.7544H3.1882Z" fill="#A5A6F6"/>
<path d="M10.6798 1.46572C10.2558 1.38419 9.83692 1.27726 9.42567 1.14551C9.15532 1.06527 9.01076 1.15057 9.04907 1.42959C9.08976 1.66635 9.14259 1.90085 9.20737 2.13218C9.22472 2.22238 9.2675 2.30578 9.33064 2.3725C9.39377 2.43921 9.47466 2.48652 9.56376 2.50882C9.93169 2.60713 10.3003 2.70254 10.6718 2.78567C10.8453 2.82398 10.8887 2.88253 10.7781 3.02854C10.7094 3.13696 10.6081 3.22085 10.4888 3.26824C10.3695 3.31563 10.2382 3.32408 10.1138 3.29237C9.6609 3.18576 9.21618 3.04685 8.78308 2.87673C8.49872 2.75697 8.25889 2.5514 8.09703 2.28871C7.93517 2.02603 7.85935 1.71938 7.88023 1.41154C7.91185 1.23332 7.95902 1.0582 8.02119 0.888205C8.14052 0.608916 8.3438 0.373666 8.60285 0.215127C8.8619 0.0565881 9.16388 -0.0173789 9.46687 0.0034445C9.79294 0.0210644 10.1066 0.134291 10.3687 0.329042C10.6308 0.523793 10.8298 0.791412 10.9408 1.09852C11.0485 1.39344 10.9827 1.51415 10.6798 1.46572Z" fill="#A5A6F6"/>
<path d="M12.6343 6.87202C12.4539 6.82312 12.2798 6.75349 12.1154 6.66455C11.979 6.59342 11.8651 6.48582 11.7863 6.35371C11.7076 6.2216 11.6671 6.07019 11.6694 5.9164C11.6678 5.68397 11.7382 5.45676 11.8709 5.26589C12.0035 5.07502 12.1919 4.92983 12.4103 4.85022C12.4587 4.81263 12.5151 4.7867 12.5751 4.77447C12.6352 4.76224 12.6972 4.76401 12.7565 4.77968C12.8157 4.79534 12.8705 4.82447 12.9167 4.86478C12.9628 4.9051 12.9991 4.95554 13.0225 5.01214C13.2137 5.3221 13.3059 5.68287 13.2871 6.04653C13.2454 6.25127 13.1899 6.45292 13.1208 6.6501C13.1079 6.69964 13.0841 6.74567 13.0511 6.78486C13.0182 6.82405 12.9769 6.8554 12.9303 6.87665C12.8838 6.8979 12.833 6.90851 12.7818 6.90771C12.7306 6.9069 12.6802 6.89472 12.6343 6.87202Z" fill="#A5A6F6"/>
<path d="M9.3474 1.27433C9.37776 1.26493 9.46887 1.3466 9.47393 1.39503C9.47899 1.44346 9.42185 1.51142 9.36258 1.62635C9.2809 1.52009 9.20284 1.46225 9.2079 1.40948C9.21296 1.35672 9.28885 1.28878 9.3474 1.27433Z" fill="#A5A6F6"/>
<path d="M3.15332 8.88196C3.23269 8.87706 3.31225 8.88833 3.38715 8.91507C3.46204 8.94181 3.53071 8.98346 3.58904 9.03752C3.64736 9.09159 3.69409 9.15694 3.72642 9.2296C3.75875 9.30225 3.77604 9.38071 3.77716 9.46023C3.77684 9.61433 3.71758 9.76249 3.61154 9.87431C3.50549 9.98613 3.36066 10.0531 3.20679 10.0616C3.1288 10.0638 3.05111 10.0506 2.97825 10.0227C2.90539 9.99482 2.83884 9.9528 2.78228 9.89906C2.72572 9.84532 2.68028 9.78093 2.64869 9.70959C2.61709 9.63825 2.5999 9.56137 2.59812 9.48337C2.59434 9.40725 2.60576 9.33113 2.63174 9.25949C2.65772 9.18784 2.69776 9.12211 2.74945 9.06611C2.80114 9.01011 2.86347 8.96498 2.93281 8.93336C3.00215 8.90174 3.07714 8.88427 3.15332 8.88196Z" fill="#A5A6F6"/>
</svg>
