<svg width="11" height="10" viewBox="0 0 11 10" fill="none" xmlns="http://www.w3.org/2000/svg">
<path d="M5.49978 7.15021C6.41105 7.15021 7.14978 6.41147 7.14978 5.5002C7.14978 4.58893 6.41105 3.8502 5.49978 3.8502C4.58851 3.8502 3.84977 4.58893 3.84977 5.5002C3.84977 6.41147 4.58851 7.15021 5.49978 7.15021Z" fill="#B3B3B3"/>
<path d="M9.90001 1.1H8.15651L7.47451 0.3575C7.37201 0.244967 7.24717 0.155049 7.10796 0.0934926C6.96875 0.0319359 6.81822 9.36484e-05 6.66601 0H4.33401C4.02601 0 3.729 0.132 3.52 0.3575L2.8435 1.1H1.1C0.495001 1.1 0 1.595 0 2.2V8.80001C0 9.40501 0.495001 9.90001 1.1 9.90001H9.90001C10.505 9.90001 11 9.40501 11 8.80001V2.2C11 1.595 10.505 1.1 9.90001 1.1ZM5.50001 8.25001C3.982 8.25001 2.75 7.01801 2.75 5.50001C2.75 3.982 3.982 2.75 5.50001 2.75C7.01801 2.75 8.25001 3.982 8.25001 5.50001C8.25001 7.01801 7.01801 8.25001 5.50001 8.25001Z" fill="#B3B3B3"/>
</svg>
