<svg width="62" height="62" viewBox="0 0 62 62" fill="none" xmlns="http://www.w3.org/2000/svg">
<path d="M0 31C0 20.149 0 14.7235 2.11175 10.5789C3.9693 6.93329 6.93329 3.9693 10.5789 2.11175C14.7235 0 20.149 0 31 0C41.851 0 47.2765 0 51.4211 2.11175C55.0667 3.9693 58.0307 6.93329 59.8883 10.5789C62 14.7235 62 20.149 62 31C62 41.851 62 47.2765 59.8883 51.4211C58.0307 55.0667 55.0667 58.0307 51.4211 59.8883C47.2765 62 41.851 62 31 62C20.149 62 14.7235 62 10.5789 59.8883C6.93329 58.0307 3.9693 55.0667 2.11175 51.4211C0 47.2765 0 41.851 0 31Z" fill="url(#paint0_linear_0_26)"/>
<defs>
<linearGradient id="paint0_linear_0_26" x1="0" y1="31" x2="62" y2="31" gradientUnits="userSpaceOnUse">
<stop stop-color="white" stop-opacity="0.1"/>
<stop offset="1" stop-color="white" stop-opacity="0.14"/>
</linearGradient>
</defs>
</svg>
