<svg width="14" height="17" viewBox="0 0 14 17" fill="none" xmlns="http://www.w3.org/2000/svg">
<path fill-rule="evenodd" clip-rule="evenodd" d="M3.53162 0.936771C5.71648 -0.332726 8.40203 -0.310537 10.5664 0.994895C12.7095 2.32691 14.012 4.70418 13.9998 7.26144C13.95 9.80194 12.5533 12.19 10.8075 14.0361C9.79984 15.1064 8.67261 16.0528 7.44884 16.856C7.32281 16.9289 7.18475 16.9777 7.04149 17C6.9036 16.9941 6.76932 16.9534 6.65075 16.8814C4.78243 15.6746 3.14334 14.134 1.81233 12.334C0.698589 10.8314 0.0658357 9.01601 1.16173e-06 7.13442C-0.00144468 4.57225 1.34677 2.20627 3.53162 0.936771ZM4.7942 8.19469C5.16172 9.10075 6.02922 9.69175 6.99164 9.69176C7.62214 9.69629 8.22822 9.44374 8.67485 8.99039C9.12147 8.53704 9.37152 7.92055 9.36928 7.27829C9.37265 6.29795 8.79549 5.41222 7.9073 5.03468C7.01911 4.65715 5.99508 4.86226 5.31335 5.55426C4.63163 6.24626 4.42668 7.28864 4.7942 8.19469Z" fill="#9796A1"/>
</svg>
