<svg width="20" height="18" viewBox="0 0 20 18" fill="none" xmlns="http://www.w3.org/2000/svg">
<path opacity="0.4" d="M19.9996 5.05279V12.9472C20.0043 14.2841 19.4766 15.568 18.5329 16.5159C17.5891 17.4637 16.3068 17.9976 14.9686 18H5.05768C3.71712 18.0023 2.43065 17.472 1.4819 16.5258C0.533142 15.5796 -2.0776e-06 14.2954 0 12.9561V5.05279C0.000730046 4.46466 0.106069 3.88134 0.311105 3.33004C1.03357 1.33226 2.93145 0.000767554 5.05768 7.9516e-07H14.9419C17.0941 -0.00120131 19.0104 1.36068 19.7152 3.3922C19.9107 3.92373 20.0071 4.48655 19.9996 5.05279Z" fill="#9796A1"/>
<path d="M19.7152 3.40108L19.6175 3.481C17.7775 4.9107 11.8221 9.69708 11.8221 9.69708C10.7865 10.5384 9.30215 10.5384 8.26658 9.69708C8.26658 9.69708 2.3467 4.91958 0.506736 3.48988L0.311184 3.33892C1.03068 1.33764 2.92924 0.00211652 5.05776 0H14.942C17.0965 0.000105848 19.0135 1.36605 19.7152 3.40108Z" fill="#9796A1"/>
</svg>
