<svg width="15" height="15" viewBox="0 0 15 15" fill="none" xmlns="http://www.w3.org/2000/svg">
<path d="M14.6873 4.38711C14.5402 3.32845 14.0452 2.34872 13.2801 1.60233C12.5151 0.855943 11.5235 0.385309 10.4615 0.264417C8.45642 -0.0949496 6.40276 -0.0879455 4.40013 0.285051C1.78222 0.81997 0.642316 2.23103 0.200157 4.9417C0.0626648 5.78046 -0.00422018 6.62919 0.000206073 7.47913C0.00943395 8.5175 0.116051 9.55271 0.318674 10.5712C0.465747 11.6298 0.96077 12.6095 1.72582 13.3559C2.49086 14.1023 3.48247 14.573 4.54444 14.6938C6.54956 15.0532 8.60319 15.0462 10.6058 14.6732C13.2237 14.1383 14.3637 12.7273 14.8058 10.0156C14.9413 9.17697 15.0061 8.32856 14.9996 7.47913C14.9924 6.44096 14.8879 5.40575 14.6873 4.38711Z" fill="#FFC529"/>
</svg>
