<svg width="18" height="20" viewBox="0 0 18 20" fill="none" xmlns="http://www.w3.org/2000/svg">
<path opacity="0.4" d="M8.99995 11.111C12.1066 11.111 14.625 8.62368 14.625 5.55548C14.625 2.48727 12.1066 0 8.99995 0C5.89335 0 3.37495 2.48727 3.37495 5.55548C3.37495 8.62368 5.89335 11.111 8.99995 11.111Z" fill="#9796A1"/>
<path d="M17.99 16.6755C17.9951 16.5964 17.9951 16.5171 17.99 16.438C17.9677 16.1458 17.8848 15.8604 17.7459 15.5979C17.1991 14.5294 15.666 14.0454 14.3869 13.7714C13.4743 13.5814 12.547 13.4593 11.6138 13.4061L10.6373 13.3331H10.1979H9.65111H8.34267H7.79586H7.35646L6.38001 13.4061C5.44679 13.4593 4.51952 13.5814 3.6069 13.7714C2.32775 14.0089 0.794729 14.502 0.247918 15.5979C0.108982 15.8604 0.0260667 16.1458 0.00380572 16.438C-0.00126857 16.5171 -0.00126857 16.5964 0.00380572 16.6755C-0.000879282 16.7546 -0.000879282 16.8338 0.00380572 16.9129C0.0303652 17.2027 0.116573 17.4848 0.257682 17.744C0.804493 18.8124 2.33752 19.2965 3.61666 19.5704C4.53098 19.7515 5.45754 19.8736 6.38978 19.9357L7.36622 19.9996H7.60057H7.80563H10.2077H10.4127H10.6471L11.6235 19.9357C12.5558 19.8736 13.4823 19.7515 14.3967 19.5704C15.6758 19.3238 17.2088 18.8398 17.7556 17.744C17.8902 17.4766 17.9728 17.1891 17.9997 16.8947C18.001 16.8215 17.9977 16.7483 17.99 16.6755Z" fill="#9796A1"/>
</svg>
