<svg width="19" height="20" viewBox="0 0 19 20" fill="none" xmlns="http://www.w3.org/2000/svg">
<path opacity="0.4" d="M17.9783 11.7155C17.0319 11.1676 16.7044 9.98615 17.2391 9.04883C17.4146 8.7462 17.6698 8.49461 17.9783 8.31995C18.4473 8.05764 18.7898 7.62433 18.9302 7.11567C19.0706 6.60701 18.9973 6.06484 18.7267 5.60885L18.0604 4.44442C17.7911 3.98766 17.3462 3.65408 16.824 3.51733C16.3017 3.38057 15.7451 3.45189 15.2769 3.71553C14.8074 3.97959 14.2493 4.05114 13.7256 3.91445C13.2019 3.77775 12.7554 3.44401 12.4843 2.98665C12.3068 2.68317 12.2126 2.34033 12.2105 1.9911C12.2129 1.46385 11.9996 0.957376 11.6176 0.583715C11.2357 0.210054 10.7167 -5.30134e-06 10.1753 0H8.83376C7.70828 -1.09235e-05 6.79449 0.886029 6.78947 1.98221C6.79329 2.69315 6.4059 3.35164 5.77423 3.70793C5.14256 4.06421 4.36336 4.06372 3.73216 3.70664C3.25967 3.43227 2.69327 3.35588 2.16201 3.49487C1.63075 3.63385 1.17988 3.97639 0.912137 4.44442L0.273297 5.56441C-0.285071 6.51479 0.0492537 7.72596 1.02165 8.2755C1.9962 8.82834 2.32698 10.0454 1.76088 10.9955C1.58774 11.2976 1.33181 11.5468 1.02165 11.7155C0.552692 11.9778 0.210203 12.4111 0.0697962 12.9198C-0.0706108 13.4284 0.00261118 13.9706 0.273297 14.4266L0.912137 15.5643C1.47974 16.5135 2.72936 16.8357 3.70478 16.2843C4.68124 15.7457 5.92083 16.0703 6.4883 17.0132C6.66891 17.3154 6.76343 17.6591 6.76209 18.0088C6.76207 18.5399 6.97995 19.0491 7.36729 19.423C7.75462 19.7969 8.2793 20.0046 8.82463 19.9999H10.1662C11.2952 19.9999 12.2105 19.1084 12.2105 18.0088C12.2032 17.4785 12.4143 16.9674 12.7968 16.5899C13.1793 16.2123 13.7011 15.9999 14.2456 15.9999C14.6048 15.9977 14.9579 16.0898 15.2678 16.2666C16.2436 16.8104 17.4871 16.4848 18.0513 15.5377L18.7267 14.3999C19.2719 13.4562 18.9387 12.261 17.9783 11.7155Z" fill="#9796A1"/>
<path d="M9.49977 12.5001C10.8805 12.5001 11.9998 11.3809 11.9998 10.0001C11.9998 8.61944 10.8805 7.50015 9.49977 7.50015C8.11906 7.50015 6.99977 8.61944 6.99977 10.0001C6.99977 11.3809 8.11906 12.5001 9.49977 12.5001Z" fill="#9796A1"/>
</svg>
