<svg width="29" height="29" viewBox="0 0 29 29" fill="none" xmlns="http://www.w3.org/2000/svg">
<path d="M14.4972 5.60601C16.5744 5.57405 18.5833 6.34791 20.1022 7.76519L24.1933 3.76465C21.5685 1.30514 18.094 -0.0435207 14.4972 0.00107157C11.8098 0.000450602 9.17525 0.747426 6.8881 2.15846C4.60096 3.5695 2.75142 5.58896 1.54634 7.99101L6.23408 11.6305C6.80728 9.88765 7.91311 8.36867 9.39563 7.28779C10.8781 6.20691 12.6626 5.61867 14.4972 5.60601Z" fill="#EA4335"/>
<path d="M28.4143 14.8201C28.4314 13.8236 28.3284 12.8286 28.1077 11.8566H14.4975V17.2372H22.4874C22.3358 18.1805 21.995 19.0834 21.4855 19.8917C20.976 20.6999 20.3083 21.3967 19.5225 21.9402L24.0974 25.4836C25.5231 24.107 26.6444 22.4468 27.3887 20.61C28.133 18.7733 28.4838 16.8009 28.4185 14.8201H28.4143Z" fill="#4285F4"/>
<path d="M6.2508 17.3648C5.93385 16.442 5.77045 15.4733 5.76711 14.4975C5.77289 13.5233 5.93044 12.556 6.23408 11.6303L1.54633 7.99073C0.5296 10.0093 0 12.2381 0 14.4982C0 16.7584 0.5296 18.9872 1.54633 21.0057L6.2508 17.3648Z" fill="#FBBC05"/>
<path d="M14.4974 28.9945C18.0286 29.0944 21.4639 27.8379 24.0974 25.4832L19.5225 21.9399C18.0392 22.9343 16.2825 23.4411 14.4974 23.3896C12.6643 23.3787 10.8812 22.7908 9.40102 21.7095C7.92082 20.6281 6.81871 19.1081 6.25103 17.365L1.56328 21.006C2.76512 23.4069 4.61162 25.4259 6.89601 26.8368C9.1804 28.2478 11.8125 28.9949 14.4974 28.9945Z" fill="#34A853"/>
</svg>
