<svg width="20" height="20" viewBox="0 0 20 20" fill="none" xmlns="http://www.w3.org/2000/svg">
<path d="M10 0C4.47917 0 0 4.47917 0 10C0 15.5208 4.47917 20 10 20C15.5208 20 20 15.5208 20 10C20 4.47917 15.5208 0 10 0ZM9.6875 15.8333C9.48148 15.8333 9.28008 15.7722 9.10878 15.6578C8.93748 15.5433 8.80396 15.3806 8.72512 15.1903C8.64628 15 8.62565 14.7905 8.66585 14.5884C8.70604 14.3864 8.80525 14.2008 8.95093 14.0551C9.09661 13.9094 9.28221 13.8102 9.48428 13.77C9.68634 13.7298 9.89579 13.7504 10.0861 13.8293C10.2765 13.9081 10.4392 14.0416 10.5536 14.2129C10.6681 14.3842 10.7292 14.5856 10.7292 14.7917C10.7292 15.0679 10.6194 15.3329 10.4241 15.5282C10.2287 15.7236 9.96376 15.8333 9.6875 15.8333ZM11.4292 10.5208C10.5849 11.0875 10.4687 11.6068 10.4687 12.0833C10.4687 12.2767 10.3919 12.4622 10.2552 12.5989C10.1184 12.7357 9.93297 12.8125 9.73958 12.8125C9.54619 12.8125 9.36073 12.7357 9.22398 12.5989C9.08724 12.4622 9.01041 12.2767 9.01041 12.0833C9.01041 10.9422 9.53541 10.0349 10.6156 9.30937C11.6198 8.63541 12.1875 8.20833 12.1875 7.26927C12.1875 6.63073 11.8229 6.14583 11.0682 5.78698C10.8906 5.7026 10.4953 5.62031 10.0089 5.62604C9.39844 5.63385 8.92448 5.77969 8.55937 6.07344C7.87083 6.6276 7.8125 7.23073 7.8125 7.23958C7.80788 7.33534 7.78445 7.42925 7.74354 7.51594C7.70263 7.60264 7.64504 7.68044 7.57407 7.74488C7.5031 7.80933 7.42012 7.85916 7.32989 7.89154C7.23966 7.92392 7.14393 7.93821 7.04817 7.93359C6.95242 7.92897 6.85851 7.90554 6.77181 7.86463C6.68511 7.82372 6.60732 7.76614 6.54287 7.69516C6.47843 7.62419 6.42859 7.54122 6.39622 7.45098C6.36384 7.36075 6.34955 7.26502 6.35416 7.16927C6.35989 7.04271 6.44792 5.9026 7.64427 4.9401C8.26458 4.44114 9.05364 4.18177 9.98802 4.17031C10.6495 4.1625 11.2708 4.27448 11.6922 4.47344C12.9531 5.06979 13.6458 6.06406 13.6458 7.26927C13.6458 9.03125 12.4682 9.82239 11.4292 10.5208Z" fill="#9796A1"/>
</svg>
