<svg width="20" height="18" viewBox="0 0 20 18" fill="none" xmlns="http://www.w3.org/2000/svg">
<path fill-rule="evenodd" clip-rule="evenodd" d="M19.9962 5.37507H15.7616C13.791 5.37854 12.1945 6.93507 12.191 8.85647C12.1883 10.7822 13.7865 12.3457 15.7616 12.3483H19.9998V12.6542C19.9998 16.0134 17.9634 17.9998 14.5172 17.9998H5.4835C2.03642 17.9998 0 16.0134 0 12.6542V5.3378C0 1.9786 2.03642 0 5.4835 0H14.5136C17.9598 0 19.9962 1.9786 19.9962 5.3378V5.37507ZM4.73944 5.36737H10.3794H10.3829H10.39C10.8123 5.36563 11.1536 5.03023 11.1518 4.6177C11.15 4.20603 10.8052 3.87323 10.3829 3.87497H4.73944C4.31989 3.8767 3.97945 4.20863 3.97767 4.61857C3.9759 5.03023 4.31723 5.36563 4.73944 5.36737Z" fill="#9796A1"/>
<path opacity="0.4" d="M14.0375 9.29647C14.2466 10.2476 15.0805 10.9169 16.0326 10.8995H19.2825C19.6787 10.8995 20 10.5714 20 10.1658V7.63431C19.9991 7.22965 19.6787 6.9007 19.2825 6.89983H15.9561C14.8731 6.90331 13.9984 7.80227 14.0001 8.91008C14.0001 9.03975 14.0128 9.16942 14.0375 9.29647Z" fill="#9796A1"/>
<path d="M16 9.8998C16.5522 9.8998 16.9999 9.45209 16.9999 8.89981C16.9999 8.34753 16.5522 7.89982 16 7.89982C15.4477 7.89982 15 8.34753 15 8.89981C15 9.45209 15.4477 9.8998 16 9.8998Z" fill="#9796A1"/>
</svg>
